# xmcd CD database file
#
# Track frame offsets:
#	150
#	8556
#	29640
#	51799
#	87741
#	105847
#	147222
#	159455
#	172220
#	187888
#	208414
#	220919
#	239797
#	258016
#	276593
#	287343
#	298336
#	312659
#	343332
#
# Disc length: 4742 seconds
#
# Revision: 0
# Processed by: cddbd v1.5.2PL0 Copyright (c) Steve Scherf et al.
# Submitted via: CDex 1.70beta2
#
DISCID=33128413
DTITLE=Stevie Ray Vaughan and Double Trouble - Couldn't Stand The Weather [CD1) [Japan]
DYEAR=1984
DGENRE=Blues
TTITLE0=Scuttle Buttin'
TTITLE1=Couldn't Stand The Weather
TTITLE2=The Things (That) I Used To Do
TTITLE3=Voodoo Child (Slight Return)
TTITLE4=Cold Shot
TTITLE5=Tin Pan Alley (aka Roughest Place In Town)
TTITLE6=Honey Bee
TTITLE7=Stang's Swang
TTITLE8=Empty Arms
TTITLE9=Come On (Part III)
TTITLE10=Look At Little Sister
TTITLE11=The Sky Is Crying (Previously unreleased 1984 version)
TTITLE12=Hide Away
TTITLE13=Give Me Back My Wig
TTITLE14=Boot Hill (Previously unreleased 1984 version)
TTITLE15=Wham!
TTITLE16=Close To You
TTITLE17=Little Wing
TTITLE18=Stang's Swang (Previously unreleased alternate take)
EXTD=YEAR: 1984
EXTT0=
EXTT1=
EXTT2=
EXTT3=
EXTT4=
EXTT5=
EXTT6=
EXTT7=
EXTT8=
EXTT9=
EXTT10=
EXTT11=
EXTT12=
EXTT13=
EXTT14=
EXTT15=
EXTT16=
EXTT17=
EXTT18=
PLAYORDER=
